<!DOCTYPE svg PUBLIC "-//W3C//DTD SVG 20010904//EN" "http://www.w3.org/TR/2001/REC-SVG-20010904/DTD/svg10.dtd">
<svg version="1.0" xmlns="http://www.w3.org/2000/svg" width="269px" height="269px" viewBox="0 0 2690 2690" preserveAspectRatio="xMidYMid meet">
<g id="layer101" fill="#000000" stroke="none">
 <path d="M1099 2629 c-171 -22 -391 -97 -533 -180 -136 -81 -270 -201 -345 -312 -131 -192 -202 -480 -187 -757 19 -367 151 -684 381 -914 185 -185 505 -352 772 -402 109 -20 359 -15 472 11 166 37 365 119 476 195 121 83 233 216 307 365 50 100 124 308 163 460 76 294 65 535 -35 767 -219 510 -862 846 -1471 767z m326 -79 c341 -40 625 -170 845 -390 150 -150 249 -312 302 -495 19 -68 23 -103 23 -230 -1 -175 -14 -252 -82 -455 -129 -392 -297 -606 -576 -735 -402 -186 -855 -158 -1234 76 -107 67 -300 253 -367 356 -184 282 -274 639 -236 939 46 367 236 632 579 803 219 111 497 159 746 131z"/>
 <path d="M766 2245 c-23 -61 2 -136 117 -350 112 -208 260 -432 442 -670 381 -500 468 -622 496 -698 19 -55 7 -63 -79 -49 -244 41 -525 178 -752 367 -78 66 -218 207 -307 310 -40 47 -54 57 -63 48 -20 -19 -3 -59 57 -131 183 -219 409 -404 633 -517 234 -118 525 -180 580 -125 11 11 20 33 20 49 0 70 -136 273 -544 815 -288 381 -421 591 -531 838 -29 66 -55 121 -58 124 -2 3 -7 -2 -11 -11z"/>
 <path d="M1212 1888 c-30 -30 -1 -134 88 -325 161 -342 409 -602 628 -658 73 -19 110 -14 152 22 34 28 40 75 16 121 -34 66 -228 217 -367 287 -95 47 -138 55 -159 30 -19 -23 3 -42 79 -65 79 -23 221 -106 296 -173 69 -61 113 -131 95 -152 -17 -20 -49 -19 -123 6 -92 31 -182 96 -294 212 -162 168 -273 358 -328 557 -37 137 -55 166 -83 138z"/>
 <path d="M805 1720 c-18 -29 76 -343 169 -563 65 -154 155 -285 180 -260 15 16 3 64 -30 119 -83 137 -171 339 -215 493 -33 113 -76 221 -90 221 -4 0 -11 -4 -14 -10z"/>
 </g>

</svg>