<?xml version="1.0" encoding="UTF-8" standalone="no"?><!DOCTYPE svg PUBLIC "-//W3C//DTD SVG 1.1//EN" "http://www.w3.org/Graphics/SVG/1.1/DTD/svg11.dtd"><svg width="100%" height="100%" viewBox="0 0 955 1160" version="1.1" xmlns="http://www.w3.org/2000/svg" xmlns:xlink="http://www.w3.org/1999/xlink" xml:space="preserve" xmlns:serif="http://www.serif.com/" style="fill-rule:evenodd;clip-rule:evenodd;stroke-linejoin:round;stroke-miterlimit:2;"><rect id="small-logo" serif:id="small logo" x="0" y="0" width="954.603" height="1159.67" style="fill:none;"/><g><path d="M114.856,1134.94c-14.004,-37.142 1.218,-82.808 71.239,-213.107c68.194,-126.647 158.308,-263.035 269.123,-407.948c231.983,-304.439 284.955,-378.722 302.004,-424.996c11.568,-33.489 4.262,-38.36 -48.102,-29.835c-148.566,24.963 -319.66,108.38 -457.875,223.458c-47.493,40.185 -132.736,126.037 -186.926,188.751c-24.355,28.618 -32.879,34.706 -38.359,29.227c-12.178,-11.569 -1.827,-35.924 34.706,-79.763c111.425,-133.344 249.031,-245.987 385.419,-314.79c142.478,-71.847 319.661,-109.598 353.149,-76.11c6.698,6.698 12.178,20.093 12.178,29.835c-0,42.622 -82.808,166.224 -331.23,496.235c-175.356,231.983 -256.337,359.847 -323.313,510.24c-17.658,40.186 -33.489,73.674 -35.315,75.5c-1.218,1.827 -4.262,-1.217 -6.698,-6.697Z" style="fill-rule:nonzero;"/><path d="M386.415,917.576c-18.266,-18.267 -0.609,-81.59 53.582,-197.886c98.029,-208.236 249.03,-366.544 382.375,-400.641c44.448,-11.569 66.976,-8.524 92.549,13.395c20.702,17.049 24.355,45.666 9.742,73.675c-20.702,40.186 -138.824,132.126 -223.458,174.747c-57.843,28.618 -84.025,33.489 -96.812,18.267c-11.568,-14.004 1.827,-25.573 48.102,-39.577c48.101,-14.004 134.562,-64.541 180.227,-105.336c42.013,-37.142 68.804,-79.763 57.844,-92.549c-10.351,-12.178 -29.835,-11.569 -74.892,3.653c-56.017,18.875 -110.816,58.452 -179.01,129.082c-98.638,102.291 -166.224,217.978 -199.712,339.144c-22.528,83.417 -33.488,101.074 -50.537,84.026Z" style="fill-rule:nonzero;"/><path d="M138.602,815.284c-10.96,-17.657 46.275,-208.845 102.901,-342.798c39.577,-93.767 94.376,-173.53 109.597,-158.308c9.134,9.742 1.827,38.968 -18.266,72.457c-50.537,83.416 -104.118,206.409 -130.908,300.176c-20.093,68.803 -46.275,134.562 -54.799,134.562c-2.436,-0 -6.698,-2.436 -8.525,-6.089Z" style="fill-rule:nonzero;"/></g></svg>